<?xml version="1.0" encoding="UTF-8" standalone="no"?>
<!DOCTYPE svg PUBLIC "-//W3C//DTD SVG 1.1//EN" "http://www.w3.org/Graphics/SVG/1.1/DTD/svg11.dtd">
<svg width="100%" height="100%" viewBox="0 0 1025 1025" version="1.1" xmlns="http://www.w3.org/2000/svg" xmlns:xlink="http://www.w3.org/1999/xlink" xml:space="preserve" xmlns:serif="http://www.serif.com/" style="fill-rule:evenodd;clip-rule:evenodd;stroke-linejoin:round;stroke-miterlimit:2;">
    <g transform="matrix(1,0,0,1,0.5,0.5)">
        <path d="M1024,256L1024,768C1024,909.29 909.29,1024 768,1024L256,1024C114.71,1024 0,909.29 0,768L0,256C0,114.71 114.71,0 256,0L768,0C909.29,0 1024,114.71 1024,256Z" style="fill:url(#_Linear1);"/>
    </g>
    <g transform="matrix(1,0,0,1,0,-40)">
        <g transform="matrix(0.909101,0,0,1,55.809355,10)">
            <rect x="63.91" y="321.5" width="897.59" height="640" style="fill:rgb(128,128,128);fill-opacity:0.76;"/>
        </g>
        <g transform="matrix(0.909101,0,0,1,45.809355,0)">
            <rect x="63.91" y="321.5" width="897.59" height="640" style="fill:url(#_Linear2);"/>
        </g>
        <g transform="matrix(0.878804,0,0,1,47.745622,0)">
            <path d="M63.91,856L348,597.387L724,961.5L63.91,961.5L63.91,856Z" style="fill:rgb(89,98,166);"/>
        </g>
        <g transform="matrix(0.849881,0,0,1,104.100869,0)">
            <path d="M427,961.5L722,659L959.91,892.832L959.91,961.5L427,961.5Z" style="fill:rgb(132,102,153);"/>
        </g>
        <g transform="matrix(1,0,0,1,-55,-63.08991)">
            <circle cx="850" cy="575" r="50" style="fill:rgb(230,97,26);"/>
        </g>
        <g transform="matrix(0.90818,0,0,0.99844,46.694732,1.00078)">
            <path d="M961.5,321L961.5,962L63,962L63,321L961.5,321ZM931.416,351.047L93.084,351.047L93.084,931.953L931.416,931.953L931.416,351.047Z" style="fill:rgb(235,235,235);"/>
        </g>
    </g>
    <g transform="matrix(0,1.107673,-4.972797,0,2565.254326,620.037129)">
        <path d="M-474,451.198L-474,372.302L-353.272,372.302L-353.272,321.5L-70,411.75L-353.272,502L-353.272,451.198L-474,451.198Z" style="fill:rgb(128,128,128);fill-opacity:0.5;"/>
    </g>
    <g transform="matrix(0,1.107673,-4.972797,0,2560.254326,610.037129)">
        <path d="M-474,451.198L-474,372.302L-353.272,372.302L-353.272,321.5L-70,411.75L-353.272,502L-353.272,451.198L-474,451.198Z" style="fill:rgb(77,89,179);"/>
    </g>
    <defs>
        <linearGradient id="_Linear1" x1="0" y1="0" x2="1" y2="0" gradientUnits="userSpaceOnUse" gradientTransform="matrix(846,-868.918405,868.918405,846,21,1024)"><stop offset="0" style="stop-color:rgb(202,206,255);stop-opacity:1"/><stop offset="1" style="stop-color:rgb(236,127,255);stop-opacity:1"/></linearGradient>
        <linearGradient id="_Linear2" x1="0" y1="0" x2="1" y2="0" gradientUnits="userSpaceOnUse" gradientTransform="matrix(0,382.443431,-383.122058,0,232.298268,397)"><stop offset="0" style="stop-color:rgb(230,156,116);stop-opacity:1"/><stop offset="1" style="stop-color:rgb(252,253,176);stop-opacity:1"/></linearGradient>
    </defs>
</svg>
