<?xml version="1.0" encoding="UTF-8" standalone="no"?><!DOCTYPE svg PUBLIC "-//W3C//DTD SVG 1.1//EN" "http://www.w3.org/Graphics/SVG/1.1/DTD/svg11.dtd"><svg width="100%" height="100%" viewBox="0 0 2657 671" version="1.1" xmlns="http://www.w3.org/2000/svg" xmlns:xlink="http://www.w3.org/1999/xlink" xml:space="preserve" xmlns:serif="http://www.serif.com/" style="fill-rule:evenodd;clip-rule:evenodd;stroke-linejoin:round;stroke-miterlimit:2;"><rect id="Artboard1" x="0" y="0" width="2656.5" height="670.5" style="fill:none;"/><g><path d="M619.649,501.106c7.941,-95.501 -21.038,-187.61 -80.293,-254.591c1.789,-1.273 3.485,-2.7 5.062,-4.278c14.04,-14.04 15.785,-36.973 6.868,-60.068c27.17,-2.749 54.966,0.899 80.623,10.287c47.081,97.802 42.995,214.052 -12.259,308.65Z" style="fill:#b0f9ec;fill-rule:nonzero;"/><path d="M488.331,119.214c-23.095,-8.917 -46.028,-7.173 -60.068,6.868c-1.578,1.578 -3.005,3.273 -4.278,5.062c-66.981,-59.255 -159.09,-88.234 -254.591,-80.293c94.598,-55.254 210.848,-59.341 308.65,-12.259c9.389,25.657 13.036,53.453 10.287,80.623Z" style="fill:#b0f9ec;fill-rule:nonzero;"/><path d="M487.615,250.301c-14.898,89.934 -39.006,179.205 -85.364,257.339c-35.595,59.999 -85.734,113.074 -146.026,147.181l-0.004,0c-56.328,-13.874 -109.703,-42.816 -153.715,-86.828c-44.011,-44.011 -72.954,-97.387 -86.828,-153.715l0,-0.004c34.106,-60.292 87.181,-110.431 147.181,-146.026c78.134,-46.358 167.405,-70.465 257.339,-85.364c4.851,14.154 13.752,28.528 26.32,41.096c12.568,12.568 26.942,21.469 41.096,26.32Z" style="fill:#b0f9ec;fill-rule:nonzero;"/><path d="M544.418,242.238c-21.994,21.993 -65.822,13.819 -97.9,-18.257c-32.077,-32.076 -40.25,-75.907 -18.257,-97.9c21.994,-21.993 65.822,-13.819 97.9,18.257c32.073,32.076 40.25,75.907 18.257,97.9Z" style="fill:#fff;fill-rule:nonzero;"/><path d="M563.684,563.684c-30.841,30.837 -66.798,54.718 -106.865,70.966c-38.705,15.695 -79.606,23.653 -121.568,23.653c-21.233,0 -42.195,-2.041 -62.739,-6.087c24.904,-15.593 48.512,-34.716 70.347,-57.003c24.454,-24.97 46.203,-53.384 64.639,-84.461c22.168,-37.359 40.173,-78.419 55.051,-125.516c12.019,-38.055 21.827,-79.704 29.935,-127.108c1.883,0.484 3.765,0.904 5.652,1.255c4.741,0.884 9.344,1.321 13.772,1.321c9.759,0 18.655,-2.125 26.255,-6.26c27.21,31.826 47.634,68.976 60.723,110.507c13.504,42.844 18.476,88.031 14.792,134.32c-13.768,23.348 -30.488,44.906 -49.993,64.415Z" style="fill:#00e5c3;"/><path d="M619.84,182.175c-21.075,-5.88 -43.089,-8.1 -64.61,-6.474c-5.579,-12.703 -14.02,-24.938 -24.754,-35.674c-10.739,-10.737 -22.973,-19.179 -35.676,-24.756c1.626,-21.523 -0.594,-43.535 -6.473,-64.61c27.584,14.836 52.835,33.637 75.357,56.158c22.518,22.52 41.32,47.771 56.157,75.357Z" style="fill:#00e5c3;"/><path d="M35.853,213.683c16.249,-40.07 40.125,-76.025 70.965,-106.864c19.508,-19.508 41.065,-36.226 64.413,-49.993c46.29,-3.684 91.476,1.287 134.32,14.791c41.536,13.09 78.684,33.512 110.509,60.725c-6.01,11.048 -7.774,24.836 -4.94,40.027c0.35,1.883 0.768,3.767 1.256,5.649c-47.407,8.107 -89.056,17.916 -127.109,29.935c-47.1,14.876 -88.158,32.883 -125.518,55.048c-31.076,18.437 -59.493,40.187 -84.46,64.645c-22.286,21.831 -41.41,45.439 -57.002,70.344c-4.047,-20.546 -6.089,-41.507 -6.089,-62.74c0,-41.96 7.959,-82.862 23.655,-121.567Z" style="fill:#00e5c3;"/><path d="M634.649,456.818c-2.379,5.859 -4.92,11.625 -7.62,17.305c0.439,-38.75 -5.087,-76.597 -16.512,-112.842c-13.487,-42.8 -34.501,-81.135 -62.48,-114.054c0.232,-0.223 0.464,-0.447 0.695,-0.676c12.101,-12.102 16.659,-30.073 12.829,-50.599c-0.516,-2.771 -1.183,-5.545 -1.988,-8.313c22.782,-1.257 46.061,2.062 67.916,9.715c2.529,5.364 4.92,10.806 7.16,16.329c15.695,38.706 23.653,79.607 23.653,121.567c0,41.962 -7.957,82.863 -23.653,121.568Zm-70.966,106.865c-30.841,30.837 -66.798,54.718 -106.865,70.966c-38.705,15.695 -79.606,23.653 -121.568,23.653c-21.233,0 -42.195,-2.041 -62.739,-6.087c24.904,-15.593 48.512,-34.716 70.347,-57.003c24.454,-24.97 46.203,-53.384 64.639,-84.461c22.168,-37.359 40.173,-78.419 55.051,-125.516c12.019,-38.055 21.827,-79.704 29.935,-127.108c1.883,0.484 3.765,0.904 5.652,1.255c4.741,0.884 9.344,1.321 13.772,1.321c9.759,0 18.655,-2.125 26.255,-6.26c27.21,31.826 47.634,68.976 60.723,110.507c13.504,42.844 18.476,88.031 14.792,134.32c-13.768,23.348 -30.488,44.906 -49.993,64.415Zm-456.866,0c-30.84,-30.841 -54.716,-66.794 -70.965,-106.865c-5.521,-13.617 -10.081,-27.503 -13.678,-41.612c16.133,-28.048 36.864,-54.567 61.65,-78.846c24.271,-23.779 51.909,-44.928 82.147,-62.868c66.451,-39.426 146.08,-66.089 250.266,-83.761c5.53,13.732 14.418,27.014 25.966,38.562c11.548,11.548 24.832,20.438 38.563,25.966c-17.671,104.187 -44.333,183.818 -83.762,250.266c-17.94,30.24 -39.087,57.877 -62.866,82.147c-24.279,24.787 -50.796,45.52 -78.846,61.65c-14.109,-3.594 -27.996,-8.157 -41.611,-13.674c-40.07,-16.252 -76.025,-40.128 -106.865,-70.966Zm-70.965,-350.001c16.249,-40.07 40.125,-76.025 70.965,-106.864c19.508,-19.508 41.065,-36.226 64.413,-49.993c46.29,-3.684 91.476,1.287 134.32,14.791c41.536,13.09 78.684,33.512 110.509,60.725c-6.01,11.048 -7.774,24.836 -4.94,40.027c0.35,1.883 0.768,3.767 1.256,5.649c-47.407,8.107 -89.056,17.916 -127.109,29.935c-47.1,14.876 -88.158,32.883 -125.518,55.048c-31.076,18.437 -59.493,40.187 -84.46,64.645c-22.286,21.831 -41.41,45.439 -57.002,70.344c-4.047,-20.546 -6.089,-41.507 -6.089,-62.74c0,-41.96 7.959,-82.862 23.655,-121.567Zm177.83,-177.83c38.706,-15.696 79.607,-23.655 121.567,-23.655c41.962,0 82.863,7.959 121.568,23.655c5.522,2.24 10.966,4.63 16.329,7.157c7.652,21.855 10.97,45.135 9.714,67.916c-2.769,-0.803 -5.542,-1.471 -8.311,-1.988c-20.53,-3.827 -38.498,0.729 -50.603,12.83c-0.228,0.229 -0.447,0.464 -0.671,0.697c-32.923,-27.982 -71.258,-48.994 -114.058,-62.483c-36.246,-11.424 -74.091,-16.952 -112.84,-16.512c5.679,-2.699 11.446,-5.242 17.303,-7.618Zm326.422,202.073c-9.169,9.171 -23.282,12.532 -39.734,9.463c-3.505,-0.653 -7.022,-1.583 -10.523,-2.765c-0.134,-0.052 -0.272,-0.096 -0.411,-0.139c-13.638,-4.683 -27.04,-13.251 -38.604,-24.817c-11.568,-11.568 -20.135,-24.97 -24.819,-38.609c-0.045,-0.137 -0.085,-0.273 -0.138,-0.405c-1.183,-3.502 -2.11,-7.018 -2.765,-10.522c-3.07,-16.454 0.293,-30.567 9.466,-39.738c6.957,-6.958 16.756,-10.571 28.263,-10.571c3.664,0 7.502,0.366 11.475,1.107c4.501,0.84 9.023,2.132 13.508,3.837c0.232,0.104 0.463,0.197 0.712,0.272c12.495,4.876 24.681,12.976 35.314,23.611c10.637,10.634 18.733,22.819 23.612,35.312c0.077,0.25 0.171,0.49 0.277,0.723c1.704,4.483 2.997,9.002 3.834,13.501c3.07,16.453 -0.293,30.566 -9.466,39.738Zm79.736,-55.751c-21.075,-5.88 -43.089,-8.1 -64.61,-6.474c-5.579,-12.703 -14.02,-24.938 -24.754,-35.674c-10.739,-10.737 -22.973,-19.179 -35.676,-24.756c1.626,-21.523 -0.594,-43.535 -6.473,-64.61c27.584,14.836 52.835,33.637 75.357,56.158c22.518,22.52 41.32,47.771 56.157,75.357Zm26.112,26.923c-16.866,-41.591 -41.645,-78.906 -73.645,-110.906c-32,-32.001 -69.315,-56.778 -110.907,-73.644c-40.169,-16.289 -82.611,-24.549 -126.151,-24.549c-43.539,0 -85.983,8.259 -126.152,24.549c-41.591,16.866 -78.905,41.643 -110.906,73.644c-32.001,32 -56.778,69.314 -73.644,110.906c-16.289,40.169 -24.549,82.613 -24.549,126.152c0,43.54 8.259,85.982 24.549,126.151c16.866,41.592 41.643,78.907 73.644,110.907c32.001,32 69.315,56.779 110.906,73.645c40.169,16.289 82.613,24.547 126.152,24.547c43.54,0 85.982,-8.258 126.151,-24.547c41.592,-16.866 78.907,-41.645 110.907,-73.645c32,-32 56.779,-69.315 73.645,-110.907c16.289,-40.169 24.547,-82.611 24.547,-126.151c0,-43.539 -8.258,-85.983 -24.547,-126.152Z" style="fill:#0a0a0f;fill-rule:nonzero;"/></g><g><path d="M904.5,477.682c-20.8,0 -40,-3.667 -57.6,-11c-17.6,-7.333 -32.867,-17.667 -45.8,-31c-12.933,-13.333 -23,-29.133 -30.2,-47.4c-7.2,-18.267 -10.8,-38.2 -10.8,-59.8c0,-21.6 3.533,-41.333 10.6,-59.2c7.067,-17.867 17.067,-33.4 30,-46.6c12.933,-13.2 28.2,-23.333 45.8,-30.4c17.6,-7.067 36.933,-10.6 58,-10.6c23.733,0 45.133,4.6 64.2,13.8c19.067,9.2 34.667,22.133 46.8,38.8c12.133,16.667 19.533,36.2 22.2,58.6l-60,0c-3.467,-20.533 -11.867,-36.067 -25.2,-46.6c-13.333,-10.533 -29.2,-15.8 -47.6,-15.8c-16.267,0 -30.6,3.867 -43,11.6c-12.4,7.733 -22.067,18.867 -29,33.4c-6.933,14.533 -10.4,32.067 -10.4,52.6c0,20.8 3.533,38.733 10.6,53.8c7.067,15.067 16.867,26.667 29.4,34.8c12.533,8.133 26.933,12.2 43.2,12.2c17.333,0 32.667,-5.2 46,-15.6c13.333,-10.4 22,-25.867 26,-46.4l60.8,0c-3.467,22.4 -11.333,41.933 -23.6,58.6c-12.267,16.667 -27.867,29.533 -46.8,38.6c-18.933,9.067 -40.133,13.6 -63.6,13.6Z" style="fill:#fff;fill-rule:nonzero;"/><path d="M1105.7,473.682l0,-48l72.8,0c20.8,0 38.467,-4.2 53,-12.6c14.533,-8.4 25.6,-19.933 33.2,-34.6c7.6,-14.667 11.4,-31.467 11.4,-50.4c0,-18.667 -3.733,-35.067 -11.2,-49.2c-7.467,-14.133 -18.467,-25.2 -33,-33.2c-14.533,-8 -32.333,-12 -53.4,-12l-71.6,0l0,-48l71.6,0c32.267,0 60.4,5.8 84.4,17.4c24,11.6 42.6,28.133 55.8,49.6c13.2,21.467 19.8,46.867 19.8,76.2c0,29.333 -6.667,54.867 -20,76.6c-13.333,21.733 -31.933,38.533 -55.8,50.4c-23.867,11.867 -51.8,17.8 -83.8,17.8l-73.2,0Zm-37.6,0l0,-288l61.6,0l0,288l-61.6,0Z" style="fill:#fff;fill-rule:nonzero;"/><path d="M1368.9,473.682l0,-288l128.8,0c20.8,0 38.933,3.533 54.4,10.6c15.467,7.067 27.467,17 36,29.8c8.533,12.8 12.8,27.733 12.8,44.8c0,16.8 -4.267,31.533 -12.8,44.2c-8.533,12.667 -20.533,22.533 -36,29.6c-15.467,7.067 -33.6,10.6 -54.4,10.6l-80,0l0,-45.2l78.4,0c14.667,0 25.933,-3.4 33.8,-10.2c7.867,-6.8 11.8,-16.333 11.8,-28.6c0,-12.533 -3.867,-22.067 -11.6,-28.6c-7.733,-6.533 -19.067,-9.8 -34,-9.8l-65.6,0l0,240.8l-61.6,0Zm162.4,0l-115.6,-149.6l65.2,0l133.6,149.6l-83.2,0Z" style="fill:#fff;fill-rule:nonzero;"/><path d="M1627.7,473.682l0,-48c26.4,-21.6 48.467,-40.2 66.2,-55.8c17.733,-15.6 31.867,-29.4 42.4,-41.4c10.533,-12 18.067,-22.933 22.6,-32.8c4.533,-9.867 6.8,-19.733 6.8,-29.6c0,-11.733 -3.133,-20.867 -9.4,-27.4c-6.267,-6.533 -15,-9.8 -26.2,-9.8c-11.733,0 -21.467,3.6 -29.2,10.8c-7.733,7.2 -12.533,17.067 -14.4,29.6l-61.6,0c2.933,-27.2 14,-48.6 33.2,-64.2c19.2,-15.6 44,-23.4 74.4,-23.4c30.933,0 55.067,7.933 72.4,23.8c17.333,15.867 26,37.933 26,66.2c0,13.333 -2.2,26.133 -6.6,38.4c-4.4,12.267 -11.667,24.933 -21.8,38c-10.133,13.067 -23.933,27.4 -41.4,43c-17.467,15.6 -39.267,33.4 -65.4,53.4l-14.8,-18l155.6,0l0,47.2l-208.8,0Z" style="fill:#00e5c3;fill-rule:nonzero;"/><path d="M1981.3,477.282c-37.333,0 -67.2,-8.333 -89.6,-25c-22.4,-16.667 -35.467,-40.2 -39.2,-70.6l59.2,0c1.867,15.467 9.333,27.667 22.4,36.6c13.067,8.933 29.733,13.4 50,13.4c16.533,0 29.267,-2.933 38.2,-8.8c8.933,-5.867 13.4,-13.733 13.4,-23.6c0,-9.333 -2.667,-16.867 -8,-22.6c-5.333,-5.733 -14.533,-10.333 -27.6,-13.8l-53.6,-14.8c-27.467,-7.733 -47.533,-18.333 -60.2,-31.8c-12.667,-13.467 -19,-30.333 -19,-50.6c0,-17.333 4.467,-32.333 13.4,-45c8.933,-12.667 21.533,-22.4 37.8,-29.2c16.267,-6.8 35.333,-10.2 57.2,-10.2c33.6,0 60.4,7.933 80.4,23.8c20,15.867 31.333,36.867 34,63l-59.2,0c-2.667,-14.133 -9.133,-24.533 -19.4,-31.2c-10.267,-6.667 -23.4,-10 -39.4,-10c-13.867,0 -24.933,2.667 -33.2,8c-8.267,5.333 -12.4,12.533 -12.4,21.6c0,6.933 2.267,13.267 6.8,19c4.533,5.733 14,10.6 28.4,14.6l53.6,14.8c28.267,7.733 48.6,18.333 61,31.8c12.4,13.467 18.6,30.467 18.6,51c0,28.8 -10,50.933 -30,66.4c-20,15.467 -47.867,23.2 -83.6,23.2Z" style="fill:#fff;fill-rule:nonzero;"/><path d="M2204.1,473.682l-103.2,-288l64,0l78.8,240l-7.6,0l79.2,-240l60.8,0l-103.2,288l-68.8,0Z" style="fill:#fff;fill-rule:nonzero;"/><path d="M2528.9,477.682c-31.2,0 -58,-6.133 -80.4,-18.4c-22.4,-12.267 -39.667,-29.467 -51.8,-51.6c-12.133,-22.133 -18.2,-48 -18.2,-77.6c0,-29.333 6.133,-55.133 18.4,-77.4c12.267,-22.267 29.267,-39.667 51,-52.2c21.733,-12.533 47,-18.8 75.8,-18.8c23.733,0 45,4.267 63.8,12.8c18.8,8.533 34,20.2 45.6,35c11.6,14.8 18.467,31.933 20.6,51.4l-61.6,0c-2.667,-15.733 -10.067,-28.067 -22.2,-37c-12.133,-8.933 -27.267,-13.4 -45.4,-13.4c-16.8,0 -31.467,3.933 -44,11.8c-12.533,7.867 -22.267,19.133 -29.2,33.8c-6.933,14.667 -10.4,32.267 -10.4,52.8c0,21.333 3.467,39.533 10.4,54.6c6.933,15.067 17.133,26.533 30.6,34.4c13.467,7.867 30.067,11.8 49.8,11.8c16,0 29.6,-2 40.8,-6c11.2,-4 19.733,-9.6 25.6,-16.8l58.4,23.2c-15.467,15.467 -33.4,27.267 -53.8,35.4c-20.4,8.133 -45,12.2 -73.8,12.2Zm66,-47.6l0,-79.2l12.4,12.4l-76,0l0,-47.2l125.2,0l0,114l-61.6,0Z" style="fill:#fff;fill-rule:nonzero;"/></g></svg>